<svg width="1200" height="360" viewBox="0 0 1200 360" fill="none" xmlns="http://www.w3.org/2000/svg">
  <rect width="1200" height="360" rx="36" fill="url(#bg)"/>
  <path d="M0 260C120 220 240 220 360 260C480 300 600 300 720 260C840 220 960 220 1200 260V360H0V260Z" fill="url(#wave)"/>
  <circle cx="160" cy="90" r="60" fill="#93C5FD"/>
  <circle cx="1040" cy="70" r="80" fill="#C4B5FD"/>
  <circle cx="980" cy="280" r="100" fill="#BFDBFE"/>

  <g>
    <rect x="120" y="130" width="300" height="170" rx="26" fill="#0F172A"/>
    <rect x="150" y="156" width="140" height="16" rx="8" fill="#A5B4FC"/>
    <rect x="150" y="182" width="180" height="12" rx="6" fill="#CBD5F5"/>
    <rect x="150" y="206" width="200" height="12" rx="6" fill="#94A3B8"/>
    <rect x="150" y="230" width="120" height="12" rx="6" fill="#CBD5F5"/>
    <rect x="150" y="254" width="160" height="12" rx="6" fill="#CBD5F5"/>
  </g>

  <g>
    <rect x="470" y="90" width="260" height="200" rx="28" fill="#FFFFFF"/>
    <rect x="500" y="118" width="120" height="14" rx="7" fill="#6366F1"/>
    <rect x="500" y="142" width="160" height="12" rx="6" fill="#64748B"/>
    <rect x="500" y="166" width="140" height="12" rx="6" fill="#E2E8F0"/>
    <rect x="500" y="190" width="180" height="12" rx="6" fill="#E2E8F0"/>
    <rect x="500" y="214" width="110" height="12" rx="6" fill="#1F2937"/>
    <rect x="500" y="238" width="150" height="12" rx="6" fill="#E2E8F0"/>
  </g>

  <g>
    <rect x="820" y="120" width="230" height="160" rx="26" fill="#EEF2FF"/>
    <rect x="846" y="146" width="100" height="14" rx="7" fill="#4F46E5"/>
    <rect x="846" y="170" width="140" height="12" rx="6" fill="#A5B4FC"/>
    <rect x="846" y="194" width="120" height="12" rx="6" fill="#C7D2FE"/>
    <rect x="846" y="218" width="150" height="12" rx="6" fill="#C7D2FE"/>
    <circle cx="1010" cy="210" r="26" fill="#6366F1"/>
    <path d="M1002 210h16" stroke="#FFFFFF" stroke-width="3" stroke-linecap="round"/>
    <path d="M1010 202v16" stroke="#FFFFFF" stroke-width="3" stroke-linecap="round"/>
  </g>

  <g>
    <circle cx="700" cy="70" r="22" fill="#60A5FA"/>
    <circle cx="742" cy="70" r="10" fill="#1D4ED8"/>
    <circle cx="680" cy="84" r="12" fill="#3B82F6"/>
  </g>

  <defs>
    <linearGradient id="bg" x1="0" y1="0" x2="1200" y2="360" gradientUnits="userSpaceOnUse">
      <stop stop-color="#E0F2FE"/>
      <stop offset="0.5" stop-color="#EEF2FF"/>
      <stop offset="1" stop-color="#EDE9FE"/>
    </linearGradient>
    <linearGradient id="wave" x1="0" y1="240" x2="1200" y2="360" gradientUnits="userSpaceOnUse">
      <stop stop-color="#DBEAFE"/>
      <stop offset="1" stop-color="#E0E7FF"/>
    </linearGradient>
  </defs>
</svg>
